# xmcd
#
# Track frame offsets: 
#        150
#        11651
#        25690
#        40629
#        51203
#        70802
#        83840
#        95815
#        106022
#        118984
#        132305
#        151397
#
# Disc length: 2181 seconds
#
# Revision: 0
# Processed by: cddbd v1.5.2PL0 Copyright (c) Steve Scherf et al.
# Submitted via: ExactAudioCopy v0.99pb4
#
DISCID=9608830c
DTITLE=Various Artist - Bose Private Performances: Green, Green Grass of Home
DYEAR=1900
DGENRE=Country
TTITLE0=Fifty Guitars - Rocky Top
TTITLE1=Tom Jones - Green, Green Grass of Home
TTITLE2=Tammy Wynette - Ozark Mountain Lullaby
TTITLE3=Cowboy Copas - Alabama
TTITLE4=Willie Nelson - Georgia On My Mind
TTITLE5=Tammy Wynette and George Jones - Southern California
TTITLE6=George Jones - You Can't Get the Hell Out of Texas
TTITLE7=Nashville Jets - Yellow Rose of Texas
TTITLE8=Asleep at the Wheel - Don't Ask Me Why (I'm Going to Texas)
TTITLE9=Larry Gatlin - Houston (Means I'm One Day Closer to You)
TTITLE10=Marty Robbins - El Paso City
TTITLE11=Glen Campbell - Galveston
EXTD=
EXTT0=
EXTT1=
EXTT2=
EXTT3=
EXTT4=
EXTT5=
EXTT6=
EXTT7=
EXTT8=
EXTT9=
EXTT10=
EXTT11=
PLAYORDER=
